# xmcd CD database file
#
# Track frame offsets:
#	150
#	17904
#	34493
#	52461
#	68563
#	89170
#	110815
#	129515
#	151867
#	167474
#	184237
#	199454
#
# Disc length: 2952 seconds
#
# Revision: 0
# Processed by: cddbd v1.5.2PL0 Copyright (c) Steve Scherf et al.
# Submitted via: CDex 1.70beta2
#
DISCID=b40b860c
DTITLE=Wild River Band - Requests Vol. II
DYEAR=2003
DGENRE=Country
TTITLE0=Panhandle Rag
TTITLE1=Sugar Moon
TTITLE2=My Life's Been A Pleasure
TTITLE3=That's What I Like 'Bout The South
TTITLE4=Silver Bell
TTITLE5=Don't Cry Baby
TTITLE6=Please Don't Talk About Me When I'm Gone
TTITLE7=It's My Lazy Day
TTITLE8=Right Or Wrong
TTITLE9=It's Four In The Morning
TTITLE10=Let Me Go Home Whiskey
TTITLE11=Mission To Moscow
EXTD=YEAR: 2003
EXTT0=
EXTT1=
EXTT2=
EXTT3=
EXTT4=
EXTT5=
EXTT6=
EXTT7=
EXTT8=
EXTT9=
EXTT10=
EXTT11=
PLAYORDER=
